<?xml version="1.0" encoding="UTF-8"?>
<svg xmlns="http://www.w3.org/2000/svg" width="975" height="300" viewBox="0 0 975 300" fill="none">
  <g clip-path="url(#clip0_606_2171)">
    <path d="M0.0394287 32.141H17.0473V14.5825H57.0896V0H0.0394287V32.141Z" fill="#FF0000"></path>
    <path d="M0.0394287 78.8603H57.0896V64.2779H17.0473V46.7194H0.0394287V78.8603Z" fill="#FF0000"></path>
    <path d="M53.6672 32.1442H17.0474V46.7266H53.6672V32.1442Z" fill="#FF0000"></path>
    <path d="M128.024 7.24914C125.605 4.92668 122.725 3.13729 119.572 1.99647C115.512 0.567565 111.226 -0.108158 106.924 0.00254353H71.6877V78.8669H88.6957V46.7259H106.924C111.206 46.8294 115.472 46.1538 119.512 44.732C122.687 43.5987 125.587 41.8089 128.024 39.4794C130.141 37.3841 131.762 34.8421 132.77 32.0393C134.754 26.4465 134.754 20.3415 132.77 14.7487C131.766 11.9266 130.144 9.36444 128.024 7.24914ZM116.12 27.8729C115.247 29.0397 114.089 29.9621 112.757 30.5513C111.207 31.2137 109.567 31.6401 107.891 31.8161C105.985 32.0409 104.067 32.1502 102.147 32.1435H88.6957V14.585H102.162C104.082 14.5783 106 14.6876 107.906 14.9124C109.584 15.0856 111.225 15.5173 112.772 16.1921C114.101 16.7728 115.255 17.691 116.12 18.8556C117.012 20.169 117.46 21.7332 117.399 23.3196C117.479 24.9362 117.03 26.5347 116.12 27.8729Z" fill="#FF0000"></path>
    <path d="M231.38 64.2819V0H214.372V78.8644H271.422V64.2819H231.38Z" fill="#FF0000"></path>
    <path d="M145.001 32.141H162.009V14.5825H202.051V0H145.001V32.141Z" fill="#FF0000"></path>
    <path d="M162.009 46.7194H145.001V78.8603H162.009V46.7194Z" fill="#FF0000"></path>
    <path d="M198.629 32.1442H162.009V46.7266H198.629V32.1442Z" fill="#FF0000"></path>
  </g>
  <path d="M0 126.185H57.0652V111.603L0 111.603V126.185Z" fill="#FF0000"></path>
  <path d="M71.6877 297.167L130.068 140.388H159.042L217.855 297.167H187.8L175.475 262.351H111.905L99.7969 297.167H71.6877ZM143.474 172.176L119.906 239.429H167.259L143.474 172.176Z" fill="#101828"></path>
  <path d="M254.566 140.388V297.167H227.106V140.388H254.566Z" fill="#101828"></path>
  <path d="M430.552 245.051H456.932C450.229 280.299 425.579 299.978 389.253 299.978C343.414 299.978 316.818 267.541 316.818 218.236C316.818 168.932 344.927 137.576 390.551 137.576C425.363 137.576 450.229 157.255 456.499 192.503H430.12C425.147 171.095 410.227 160.066 389.686 160.066C364.82 160.066 345.144 180.393 345.144 218.236C345.144 256.296 364.388 277.488 389.47 277.488C410.876 277.488 425.579 266.676 430.552 245.051Z" fill="#101828"></path>
  <path d="M580.446 246.348H493.74C495.47 267.973 510.606 278.569 525.309 278.569C538.931 278.569 549.31 273.379 553.851 262.351H579.149C573.959 280.948 556.229 299.978 526.39 299.978C488.983 299.978 467.577 271.649 467.577 238.131C467.577 203.099 491.578 178.231 524.66 178.231C560.337 178.231 582.825 207.424 580.446 246.348ZM524.66 198.342C512.552 198.342 496.119 205.694 493.74 227.535H554.283C553.634 209.37 539.796 198.342 524.66 198.342Z" fill="#101828"></path>
  <path d="M620.877 180.826V197.044C627.58 184.934 639.688 178.231 656.121 178.231C684.23 178.231 695.69 196.395 695.69 224.075V297.167H669.96V230.346C669.96 214.56 667.797 199.207 647.905 199.207C628.012 199.207 620.877 214.344 620.877 235.32V297.167H595.146V180.826H620.877Z" fill="#101828"></path>
  <path d="M719.662 180.826V150.119H745.393V180.826H768.745V199.423H745.393V262.783C745.393 274.677 748.204 277.488 759.231 277.488H768.529V297.167H749.501C724.636 297.167 719.662 290.463 719.662 266.676V199.423H702.365V180.826H719.662Z" fill="#101828"></path>
  <path d="M888.067 246.348H801.361C803.091 267.973 818.227 278.569 832.93 278.569C846.552 278.569 856.931 273.379 861.472 262.351H886.77C881.581 280.948 863.85 299.978 834.011 299.978C796.604 299.978 775.198 271.649 775.198 238.131C775.198 203.099 799.199 178.231 832.281 178.231C867.958 178.231 890.446 207.424 888.067 246.348ZM832.281 198.342C820.173 198.342 803.74 205.694 801.361 227.535H861.904C861.255 209.37 847.417 198.342 832.281 198.342Z" fill="#101828"></path>
  <path d="M966.337 181.042V206.992C962.012 206.559 957.904 206.343 954.012 206.343C937.795 206.343 928.498 212.83 928.498 236.185V297.167H902.767V180.826H928.065V201.585C934.336 188.611 945.579 180.826 959.634 180.609C961.58 180.609 964.391 180.826 966.337 181.042Z" fill="#101828"></path>
  <defs>
    <clipPath id="clip0_606_2171">
      <rect width="271.412" height="78.8644" fill="white" transform="translate(0.0394287)"></rect>
    </clipPath>
  </defs>
</svg>
